HIERARCHY
ROOT Hips
{
  OFFSET 55.3847 55.3221 12.229
  CHANNELS 6 Xposition Yposition Zposition Zrotation Xrotation Yrotation
  JOINT spine
  {
    OFFSET 0 8.13249 0.467659
    CHANNELS 3 Zrotation Xrotation Yrotation
    JOINT spine1
    {
      OFFSET 0 10.3498 0
      CHANNELS 3 Zrotation Xrotation Yrotation
      JOINT spine2
      {
        OFFSET 0 9.91699 0
        CHANNELS 3 Zrotation Xrotation Yrotation
        JOINT Neck
        {
          OFFSET 0 25.461 1.2139
          CHANNELS 3 Zrotation Xrotation Yrotation
          JOINT Head
          {
            OFFSET 0 7.69245 0
            CHANNELS 3 Zrotation Xrotation Yrotation
            End Site
            {
              OFFSET 0 18.62 -6.14063
            }
          }
        }
        JOINT RightShoulder
        {
          OFFSET -4.17575 10.7096 -0.581445
          CHANNELS 3 Zrotation Xrotation Yrotation
          JOINT RightArm
          {
            OFFSET 0 14.0466 0
            CHANNELS 3 Zrotation Xrotation Yrotation
            JOINT RightArmRoll
            {
              OFFSET 0 7.09099 0
              CHANNELS 3 Zrotation Xrotation Yrotation
              JOINT RightForeArm
              {
                OFFSET 0 20.6535 0
                CHANNELS 3 Zrotation Xrotation Yrotation
                JOINT RightForeArmRoll
                {
                  OFFSET 0 7.95718 0
                  CHANNELS 3 Zrotation Xrotation Yrotation
                  JOINT RightHand
                  {
                    OFFSET 0 15.9683 0
                    CHANNELS 3 Zrotation Xrotation Yrotation
                    End Site
                    {
                      OFFSET 0 0 0
                    }
                  }
                }
              }
            }
          }
        }
        JOINT LeftShoulder
        {
          OFFSET 4.17575 10.7096 -0.581445
          CHANNELS 3 Zrotation Xrotation Yrotation
          JOINT LeftArm
          {
            OFFSET 0 14.0466 0
            CHANNELS 3 Zrotation Xrotation Yrotation
            JOINT LeftArmRoll
            {
              OFFSET 0 7.09099 0
              CHANNELS 3 Zrotation Xrotation Yrotation
              JOINT LeftForeArm
              {
                OFFSET 0 20.6535 0
                CHANNELS 3 Zrotation Xrotation Yrotation
                JOINT LeftForeArmRoll
                {
                  OFFSET 0 7.95718 0
                  CHANNELS 3 Zrotation Xrotation Yrotation
                  JOINT LeftHand
                  {
                    OFFSET 0 15.9683 0
                    CHANNELS 3 Zrotation Xrotation Yrotation
                    End Site
                    {
                      OFFSET 0 0 0
                    }
                  }
                }
              }
            }
          }
        }
      }
    }
  }
  JOINT RightUpLeg
  {
    OFFSET -7.20834 -1.32182 -1.10884
    CHANNELS 3 Zrotation Xrotation Yrotation
    JOINT RightUpLegRoll
    {
      OFFSET 0 18.7238 0
      CHANNELS 3 Zrotation Xrotation Yrotation
      JOINT RightLeg
      {
        OFFSET 0 -23.1866 0
        CHANNELS 3 Zrotation Xrotation Yrotation
        JOINT RightLegRoll
        {
          OFFSET 0 23.2624 0
          CHANNELS 3 Zrotation Xrotation Yrotation
          JOINT RightFoot
          {
            OFFSET 0 19.3621 0
            CHANNELS 3 Zrotation Xrotation Yrotation
            JOINT RightToeBase
            {
              OFFSET 0 16.1857 0
              CHANNELS 3 Zrotation Xrotation Yrotation
              End Site
              {
                OFFSET 0.00686052 7.83863 -0.903521
              }
            }
          }
        }
      }
    }
  }
  JOINT LeftUpLeg
  {
    OFFSET 7.20834 -1.32182 -1.10884
    CHANNELS 3 Zrotation Xrotation Yrotation
    JOINT LeftUpLegRoll
    {
      OFFSET 0 18.7239 0
      CHANNELS 3 Zrotation Xrotation Yrotation
      JOINT LeftLeg
      {
        OFFSET 0 23.1865 0
        CHANNELS 3 Zrotation Xrotation Yrotation
        JOINT LeftLegRoll
        {
          OFFSET 0 23.4775 0
          CHANNELS 3 Zrotation Xrotation Yrotation
          JOINT LeftFoot
          {
            OFFSET 0 19.147 0
            CHANNELS 3 Zrotation Xrotation Yrotation
            JOINT LeftToeBase
            {
              OFFSET 0 16.1857 0
              CHANNELS 3 Zrotation Xrotation Yrotation
              End Site
              {
                OFFSET -0.0307459 7.83862 -0.903522
              }
            }
          }
        }
      }
    }
  }
}
MOTION
Frames: 10
Frame Time: 0.00208333
53.8469 65.6319 22.5007 1.56931 25.0387 -1.3189 1.06707 2.89195 0.000589621 2.15062 9.79427 -0.193431 2.16001 11.4387 -0.230597 -4.76738 9.18062 -6.16385 3.51039 15.224 -7.58857 44.6189 -10.409 -6.4967 122.154 26.1065 -44.7828 2.98823e-007 1.75864e-007 -3.33045e-006 25.7915 82.8511 -27.0425 -5.87629e-007 9.11e-007 -3 8.02894 -4.95145 0.697664 -56.4143 -5.23934 3.09621 -119.565 30.3838 36.2074 -1.21098e-006 -3.8038e-006 2.42889e-006 -4.46882 67.1244 2.73704 4.26939e-006 5.30448e-006 3.00137 -8.02897 -4.95146 -0.6977 42.8459 78.2334 139.202 180 -7.01614e-015 179.268 171.346 78.9136 -176.148 1.35771e-006 1.24203e-006 1.60766 -20.9737 68.6489 20.131 8.13649 25.2327 -3.48774 -47.6001 78.4685 -135.18 4.54188e-006 -4.6773e-006 -0.857087 -4.62071 -80.3046 -0.796257 7.84064e-007 -1.93495e-007 -1.82835 20.28 70.501 -21.8334 -8.13598 25.2327 3.48752 
53.8467 65.5428 22.4421 1.57137 24.9549 -1.31798 1.06816 2.89192 0.000364143 2.15333 9.79502 -0.194079 2.16272 11.4394 -0.231292 -4.74324 9.13824 -6.16635 3.50951 15.2515 -7.58474 44.6413 -10.4127 -6.49968 122.111 26.1273 -44.8181 2.98823e-007 1.75864e-007 -3.33045e-006 25.7961 82.9134 -27.0789 -5.87629e-007 9.11e-007 -3 8.02894 -4.95145 0.697664 -56.3705 -5.25865 3.10597 -119.639 30.4036 36.2392 -1.21098e-006 -3.8038e-006 2.42889e-006 -4.47336 67.1041 2.73847 4.26939e-006 5.30448e-006 3.00138 -8.02897 -4.95146 -0.6977 42.5759 78.2089 139.461 180 7.01614e-015 179.267 171.481 79.0023 -176.257 1.35771e-006 1.24203e-006 1.61176 -20.9073 68.6011 20.0859 8.13649 25.2327 -3.48774 -47.4417 78.4282 -135.359 4.54188e-006 -4.6773e-006 -0.858378 -4.52811 -80.3819 -0.713293 7.84064e-007 -1.93495e-007 -1.82974 20.2157 70.4454 -21.7749 -8.13598 25.2327 3.48752 
53.8708 65.4544 22.3626 1.57297 24.8704 -1.31654 1.06927 2.89194 4.02655e-005 2.15604 9.79573 -0.19493 2.16544 11.4401 -0.23219 -4.71787 9.09747 -6.16871 3.50732 15.2772 -7.58042 44.663 -10.4159 -6.50222 122.072 26.1485 -44.8511 2.98823e-007 1.75864e-007 -3.33045e-006 25.8041 82.9732 -27.1175 -5.87629e-007 9.11e-007 -3 8.02894 -4.95145 0.697664 -56.3262 -5.27738 3.11534 -119.717 30.4266 36.2653 -1.21098e-006 -3.8038e-006 2.42889e-006 -4.48548 67.0782 2.74589 4.26939e-006 5.30448e-006 3.00138 -8.02897 -4.95146 -0.6977 42.325 78.1837 139.704 180 7.01613e-015 179.267 171.607 79.0873 -176.359 1.35771e-006 1.24203e-006 1.61596 -20.8436 68.5512 20.0391 8.13649 25.2327 -3.48774 -47.2913 78.3886 -135.53 4.54188e-006 -4.6773e-006 -0.859819 -4.43543 -80.4573 -0.630203 7.84064e-007 -1.93495e-007 -1.83134 20.1536 70.3888 -21.7159 -8.13598 25.2327 3.48752 
53.8651 65.3631 22.3133 1.57413 24.7854 -1.31444 1.07038 2.89198 -0.000375669 2.15875 9.79632 -0.195974 2.16816 11.4407 -0.233282 -4.6908 9.05845 -6.171 3.5031 15.3011 -7.57558 44.6842 -10.4186 -6.50439 122.037 26.1697 -44.8815 2.98823e-007 1.75864e-007 -3.33045e-006 25.8169 83.0307 -27.1597 -5.87629e-007 9.11e-007 -3 8.02894 -4.95145 0.697664 -56.2814 -5.29535 3.12421 -119.801 30.4535 36.2848 -1.21098e-006 -3.8038e-006 2.42889e-006 -4.50621 67.046 2.76014 4.26939e-006 5.30448e-006 3.00139 -8.02897 -4.95146 -0.6977 42.0962 78.1573 139.929 180 7.01613e-015 179.266 171.723 79.1684 -176.453 1.35771e-006 1.24203e-006 1.62031 -20.7834 68.499 19.9904 8.13649 25.2327 -3.48774 -47.1484 78.3497 -135.694 4.54188e-006 -4.6773e-006 -0.861443 -4.34305 -80.5307 -0.547363 7.84064e-007 -1.93495e-007 -1.83321 20.0941 70.3313 -21.6564 -8.13598 25.2327 3.48752 
53.8755 65.2859 22.2318 1.57487 24.6999 -1.31158 1.07151 2.89204 -0.000877319 2.16143 9.79675 -0.197204 2.17087 11.4412 -0.234559 -4.66158 9.02127 -6.17332 3.49615 15.323 -7.57015 44.7048 -10.4209 -6.50626 122.007 26.1907 -44.9093 2.98823e-007 1.75864e-007 -3.33045e-006 25.8359 83.0862 -27.207 -5.87629e-007 9.11e-007 -3 8.02894 -4.95145 0.697664 -56.236 -5.3124 3.13245 -119.891 30.4847 36.2971 -1.21098e-006 -3.8038e-006 2.42889e-006 -4.53656 67.0065 2.78201 4.2694e-006 5.30448e-006 3.00139 -8.02897 -4.95146 -0.6977 41.8925 78.1291 140.133 180 7.01613e-015 179.265 171.825 79.2452 -176.536 1.35771e-006 1.24203e-006 1.62485 -20.7272 68.4441 19.9396 8.13649 25.2327 -3.48774 -47.0129 78.3115 -135.853 4.54188e-006 -4.6773e-006 -0.863287 -4.25137 -80.6022 -0.465164 7.84064e-007 -1.93495e-007 -1.83541 20.0377 70.2728 -21.5965 -8.13598 25.2327 3.48752 
53.8823 65.1993 22.1805 1.57519 24.6139 -1.30782 1.07265 2.89208 -0.00145834 2.16408 9.79694 -0.198608 2.17354 11.4413 -0.236011 -4.62976 8.98607 -6.17576 3.48577 15.3427 -7.56411 44.7248 -10.4229 -6.50788 121.98 26.2112 -44.9343 2.98823e-007 1.75864e-007 -3.33045e-006 25.8626 83.14 -27.2611 -5.87629e-007 9.11e-007 -3 8.02894 -4.95145 0.697664 -56.1899 -5.32835 3.13995 -119.988 30.5207 36.3012 -1.21098e-006 -3.8038e-006 2.42889e-006 -4.57753 66.9592 2.81229 4.26939e-006 5.30448e-006 3.0014 -8.02897 -4.95146 -0.6977 41.7166 78.0987 140.314 180 7.01613e-015 179.263 171.912 79.3174 -176.607 1.35771e-006 1.24203e-006 1.62961 -20.6759 68.3863 19.8865 8.13649 25.2327 -3.48774 -46.8844 78.274 -136.006 4.54188e-006 -4.6773e-006 -0.865384 -4.16082 -80.6716 -0.384007 7.84064e-007 -1.93495e-007 -1.838 19.9848 70.2132 -21.536 -8.13598 25.2327 3.48752 
53.8794 65.1222 22.0965 1.57514 24.5274 -1.30369 1.07374 2.89224 -0.00217664 2.16659 9.79711 -0.200285 2.17607 11.4415 -0.237734 -4.59521 8.95262 -6.17754 3.47166 15.3599 -7.55661 44.7437 -10.4239 -6.50868 121.959 26.232 -44.9558 2.98823e-007 1.75864e-007 -3.33045e-006 25.8946 83.1908 -27.3191 -5.87629e-007 9.11e-007 -3 8.02894 -4.95145 0.697664 -56.1426 -5.34382 3.14709 -120.093 30.5621 36.2958 -1.21098e-006 -3.8038e-006 2.42889e-006 -4.63097 66.9032 2.85234 4.26939e-006 5.30448e-006 3.0014 -8.02897 -4.95146 -0.6977 41.5697 78.0667 140.473 180 7.01613e-015 179.261 171.98 79.3836 -176.662 1.35771e-006 1.24203e-006 1.63467 -20.6296 68.3241 19.8297 8.13649 25.2327 -3.48774 -46.7659 78.2369 -136.15 4.54188e-006 -4.6773e-006 -0.867687 -4.06894 -80.7389 -0.301679 7.84064e-007 -1.93495e-007 -1.84093 19.9348 70.1526 -21.4752 -8.13598 25.2327 3.48752 
53.8848 65.0325 22.0393 1.57472 24.44 -1.29974 1.07472 2.8926 -0.003082 2.16889 9.79748 -0.202317 2.1784 11.4419 -0.239809 -4.55837 8.92061 -6.17802 3.45442 15.3743 -7.54708 44.7614 -10.4233 -6.50821 121.944 26.254 -44.9734 2.98823e-007 1.75864e-007 -3.33045e-006 25.9284 83.2374 -27.3768 -5.87629e-007 9.11e-007 -3 8.02894 -4.95145 0.697664 -56.094 -5.35945 3.15429 -120.207 30.6089 36.2805 -1.21098e-006 -3.8038e-006 2.42889e-006 -4.697 66.8388 2.90212 4.2694e-006 5.30448e-006 3.00141 -8.02897 -4.95146 -0.6977 41.4487 78.0342 140.611 180 7.01612e-015 179.259 172.03 79.4431 -176.702 1.35771e-006 1.24203e-006 1.64003 -20.5877 68.2565 19.7685 8.13649 25.2327 -3.48774 -46.6594 78.2004 -136.282 4.54188e-006 -4.6773e-006 -0.870121 -3.97349 -80.804 -0.216125 7.84064e-007 -1.93495e-007 -1.84412 19.8868 70.0911 -21.4141 -8.13598 25.2327 3.48752 
53.8609 64.962 21.9658 1.57391 24.3519 -1.29584 1.07561 2.89314 -0.00415592 2.17104 9.79801 -0.204669 2.18059 11.4424 -0.242204 -4.51961 8.89005 -6.17743 3.43468 15.3861 -7.53589 44.7779 -10.4214 -6.50662 121.934 26.2771 -44.9876 2.98823e-007 1.75864e-007 -3.33045e-006 25.9637 83.28 -27.4345 -5.87629e-007 9.11e-007 -3 8.02894 -4.95145 0.697664 -56.0443 -5.37513 3.16149 -120.327 30.6605 36.2566 -1.21098e-006 -3.8038e-006 2.42889e-006 -4.77392 66.7668 2.96033 4.2694e-006 5.30448e-006 3.00141 -8.02897 -4.95146 -0.6977 41.3509 78.0016 140.731 180 7.01612e-015 179.257 172.063 79.4968 -176.728 1.35771e-006 1.24203e-006 1.64564 -20.5497 68.1844 19.7036 8.13649 25.2327 -3.48774 -46.5638 78.1646 -136.404 4.54188e-006 -4.6773e-006 -0.872679 -3.87521 -80.867 -0.128013 7.84064e-007 -1.93495e-007 -1.84755 19.8408 70.0288 -21.3528 -8.13598 25.2327 3.48752 
53.8669 64.8732 21.9025 1.57268 24.263 -1.29187 1.07646 2.89383 -0.00537988 2.17309 9.79866 -0.207312 2.18268 11.4431 -0.244888 -4.47934 8.86095 -6.17602 3.41309 15.3958 -7.52342 44.7935 -10.4183 -6.50411 121.929 26.3012 -44.9987 2.98823e-007 1.75864e-007 -3.33045e-006 26.0005 83.319 -27.4919 -5.87629e-007 9.11e-007 -3 8.02894 -4.95145 0.697664 -55.9939 -5.39073 3.16861 -120.454 30.7162 36.2252 -1.21098e-006 -3.8038e-006 2.42889e-006 -4.86009 66.6882 3.02567 4.2694e-006 5.30448e-006 3.00142 -8.02897 -4.95146 -0.6977 41.2738 77.9689 140.835 180 7.01612e-015 179.254 172.083 79.5454 -176.743 1.35771e-006 1.24203e-006 1.65143 -20.515 68.1087 19.6359 8.13649 25.2327 -3.48774 -46.4779 78.1294 -136.516 4.54188e-006 -4.6773e-006 -0.875355 -3.77489 -80.928 -0.0380279 7.84064e-007 -1.93495e-007 -1.85118 19.7966 69.9655 -21.2913 -8.13598 25.2327 3.48752 
